<svg xmlns="http://www.w3.org/2000/svg" viewBox="0 0 120 120" width="120" height="120">
  <path d="M36 18 C36 8 47 8 49 19 L51 32 L36 33 Z" fill="#3D4FE0"></path>
  <path d="M84 18 C84 8 73 8 71 19 L69 32 L84 33 Z" fill="#3D4FE0"></path>
  <circle cx="60" cy="37" r="19" fill="#3D4FE0"></circle>
  <ellipse cx="60" cy="44" rx="8" ry="6" fill="#FCFCFD"></ellipse>
  <circle cx="60" cy="43" r="2.6" fill="#1F2230"></circle>
  <circle cx="52" cy="34" r="2.4" fill="#FCFCFD"></circle>
  <circle cx="68" cy="34" r="2.4" fill="#FCFCFD"></circle>
  <rect x="22" y="54" width="76" height="42" rx="6" stroke="#1F2230" stroke-width="6" fill="#FCFCFD"></rect>
  <line x1="32" y1="66" x2="60" y2="66" stroke="#3D4FE0" stroke-width="4" stroke-linecap="round"></line>
  <line x1="32" y1="76" x2="72" y2="76" stroke="#8A8FA3" stroke-width="4" stroke-linecap="round"></line>
  <line x1="32" y1="86" x2="50" y2="86" stroke="#3D4FE0" stroke-width="4" stroke-linecap="round"></line>
  <rect x="18" y="100" width="84" height="12" rx="4" fill="#1F2230"></rect>
  <circle cx="38" cy="106" r="4" fill="#3D4FE0"></circle>
  <circle cx="82" cy="106" r="4" fill="#3D4FE0"></circle>
</svg>